<svg aria-hidden="true" style="position: absolute; width: 0; height: 0; overflow: hidden;" version="1.1" xmlns="http://www.w3.org/2000/svg" xmlns:xlink="http://www.w3.org/1999/xlink">
<defs>
<symbol id="icon-fire" viewBox="0 0 24 32">
<path fill="#ff6b09" style="fill: var(--color1, #ff6b09)" d="M21.042 16.003c-0.275-0.613-0.654-1.216-1.208-1.912-1.398-1.749-1.824-5.649-1.829-5.686-0.019-0.187-0.152-0.341-0.327-0.397-0.18-0.056-0.374-0.005-0.502 0.136-1.668 1.856-0.967 4.723-0.588 5.869 0.104 0.313 0.218 0.683 0.298 1.057 0.616 3.025-0.573 4.396-0.853 4.671-0.27 0.075-0.455 0.037-0.625-0.145-0.588-0.641-0.782-2.74-0.507-5.476 0.057-0.556 0.043-1.057-0.038-1.524-0.58-3.362-2.704-5.519-3.245-6.275-1.488-2.188-1.639-5.831-1.644-5.864-0.005-0.173-0.104-0.327-0.261-0.402-0.152-0.075-0.336-0.065-0.479 0.033-2.483 1.679-2.269 5.724-1.924 7.982 0.081 0.524 0.237 1.057 0.507 1.73 0.962 2.408-0.19 5.518-0.199 5.546s-0.019 0.051-0.024 0.079c-0.147 0.767-0.393 1.225-0.668 1.225-0.028 0-0.057-0.005-0.090-0.014-0.336-0.070-0.512-0.426-0.516-0.734-0.019-3.989-4.041-5.331-4.084-5.345-0.18-0.056-0.379-0.005-0.502 0.14-0.128 0.145-0.152 0.346-0.066 0.514 0.047 0.098 0.199 0.528 0.095 2.048-0.090 1.365-0.341 2.717-0.744 4.012-0.957 3.105-0.805 6.046-0.796 6.187 0.736 7.964 12.245 9.359 19.075 4.873 0.748-0.491 1.36-1.052 1.81-1.669 2.521-3.46 1.038-8.16-0.066-10.657zM3.535 23.611c0.014 0.257-0.185 0.477-0.445 0.491h-0.028c-0.251 0-0.46-0.192-0.474-0.44-0.043-0.683-0.033-1.398 0.019-2.174 0.019-0.257 0.246-0.449 0.507-0.435 0.261 0.019 0.46 0.243 0.441 0.5-0.052 0.739-0.062 1.412-0.019 2.058zM3.768 19.468c-0.028 0.238-0.232 0.412-0.469 0.412-0.019 0-0.038 0-0.062-0.005-0.256-0.033-0.441-0.262-0.412-0.519l0.227-1.805c0.033-0.252 0.265-0.435 0.531-0.407 0.261 0.033 0.445 0.267 0.412 0.524l-0.227 1.8z"></path>
</symbol>
<symbol id="icon-phone" viewBox="0 0 33 32">
<path fill="#ff6b09" style="fill: var(--color1, #ff6b09)" d="M4.818 0.007c-0.572 0.026-1.080 0.279-1.439 0.672l-0.001 0.002-2.685 2.953c0.004-0.009-0.011-0.008-0.086 0.099-0.039 0.053-0.071 0.113-0.092 0.179l-0.001 0.005c-1.092 3.48-0.36 7.308 1.423 10.948 1.785 3.641 4.63 7.125 7.897 9.984 3.266 2.859 6.953 5.096 10.467 6.206 3.516 1.109 6.923 1.095 9.449-0.737 0.029-0.021 0.054-0.043 0.077-0.067l0-0c0.066-0.066 0.068-0.075 0.057-0.065l2.681-2.95c0.333-0.369 0.537-0.86 0.537-1.399 0-0.608-0.26-1.156-0.675-1.538l-6.337-5.765c-0.369-0.334-0.86-0.538-1.4-0.538-0.608 0-1.156 0.26-1.538 0.674l-2.868 3.154c-2.328-0.673-4.318-1.816-6.231-3.556-1.913-1.741-3.24-3.615-4.13-5.869l2.866-3.153c0.334-0.369 0.538-0.861 0.538-1.4 0-0.608-0.259-1.155-0.674-1.537l-6.339-5.766c-0.367-0.334-0.856-0.538-1.394-0.538-0.037 0-0.074 0.001-0.11 0.003l0.005-0zM4.877 1.3c0.009-0 0.019-0.001 0.030-0.001 0.205 0 0.392 0.080 0.53 0.21l-0-0 6.337 5.763c0.16 0.14 0.26 0.345 0.26 0.573 0 0.203-0.079 0.387-0.209 0.524l0-0-3.169 3.482c-0.104 0.115-0.168 0.268-0.168 0.436 0 0.081 0.015 0.158 0.041 0.229l-0.001-0.005c0.961 2.624 2.513 4.778 4.647 6.719 2.135 1.942 4.423 3.283 7.126 3.992 0.050 0.014 0.107 0.021 0.166 0.021 0.191 0 0.362-0.082 0.482-0.213l0-0.001 3.169-3.482c0.14-0.16 0.345-0.26 0.573-0.26 0.203 0 0.387 0.079 0.524 0.209l6.338 5.763c0.16 0.14 0.26 0.345 0.26 0.573 0 0.203-0.080 0.388-0.209 0.524l0-0-2.649 2.913c-2.072 1.486-4.992 1.57-8.262 0.537-3.283-1.036-6.846-3.182-9.999-5.942s-5.898-6.131-7.585-9.574c-1.67-3.407-2.275-6.852-1.357-9.888l2.589-2.845c0.133-0.15 0.323-0.247 0.535-0.259l0.002-0z"></path>
</symbol>
<symbol id="icon-menu" viewBox="0 0 48 32">
<path stroke-linejoin="miter" stroke-linecap="butt" stroke-miterlimit="4" stroke-width="4.5714" d="M0 2.286h46.857"></path>
<path stroke-linejoin="miter" stroke-linecap="butt" stroke-miterlimit="4" stroke-width="4.5714" d="M0 16h46.857"></path>
<path stroke-linejoin="miter" stroke-linecap="butt" stroke-miterlimit="4" stroke-width="4.5714" d="M0 29.714h46.857"></path>
</symbol>
<symbol id="icon-cross" viewBox="0 0 32 32">
<path fill="none" stroke="#fff" style="stroke: var(--color1, #fff)" stroke-linejoin="miter" stroke-linecap="butt" stroke-miterlimit="4" stroke-width="3.5556" d="M1.778 30.221l28.444-28.444"></path>
<path fill="none" stroke="#fff" style="stroke: var(--color1, #fff)" stroke-linejoin="miter" stroke-linecap="butt" stroke-miterlimit="4" stroke-width="3.5556" d="M30.222 30.221l-28.444-28.444"></path>
</symbol>
</defs>
</svg>

